<?xml version="1.0" encoding="UTF-8" standalone="no"?>
<svg
   width="210mm"
   height="210mm"
   viewBox="0 0 210 210"
   version="1.1"
   xmlns="http://www.w3.org/2000/svg">
  <defs />
  <g>
    <!-- Green diagonal split with rounded corners -->
    <path
       d="M 16.66875,0 H 193.33125 A 1.66875,16.66875 0 0 1 210,16.66875 V 193.33125 A 16.66875,16.66875 0 0 1 193.33125,210 H 16.66875 A 16.66875,16.66875 0 0 1 0,193.33125 V 16.66875 A 16.66875,16.66875 0 0 1 16.66875,0 Z
          M 16.66875,0 L 210,20 L 210,0 Z"
       style="fill:#029b52;fill-opacity:1;" />
    <!-- Red diagonal split with rounded corners -->
    <path
       d="M 16.66875,0 H 193.33125 A 16.66875,16.66875 0 0 1 210,16.66875 V 193.33125 A 16.66875,16.66875 0 0 1 193.33125,210 H  A 16.66875,16.66875 0 0 1 0,193.33125 V 16.66875 A 16.66875,16.66875 0 0 1 16.66875,0 Z
          M 0,0 L 0,210 L 210,210 Z"
       style="fill:#ff0917;fill-opacity:1;" />
    <!-- Metro station icon -->
    <path
       style="fill:#ffffff;fill-opacity:0.99805498;stroke-width:17;stroke-linejoin:round;paint-order:stroke fill markers"
       d="M 68.400402,32.95 V 85.650141 H 36.9 V 102.3499 l 68.10024,74.69983 68.09971,-74.69983 V 85.650141 H 141.60007 V 32.95 H 124.10036 L 105.00024,56.550108 85.900108,32.95 Z m 16.800007,24.499794 19.799831,24.600051 19.79982,-24.600051 v 44.800366 h 25.10028 l -44.9001,48.89986 -44.900108,-48.89986 h 25.100277 z" />
  </g>
</svg>
