<svg xmlns="http://www.w3.org/2000/svg" viewBox="0 0 1300 100">
  <!-- Car 1 -->
  <g transform="translate(0, 0)">
    <rect id="car-1" x="0" y="0" width="254" height="100" rx="10" ry="10" style="stroke: rgb(0, 0, 0); paint-order: fill; fill: rgb(191, 191, 191);"></rect>
    <rect id="car-1-door-1" x="10" y="20" width="38" height="70" rx="5" ry="5" style="stroke: rgb(0, 0, 0); fill: rgb(254, 182, 182);"></rect>
    <rect id="car-1-door-2" x="75" y="20" width="38" height="70" rx="5" ry="5" style="stroke: rgb(0, 0, 0); fill: rgb(254, 182, 182);"></rect>
    <rect id="car-1-door-3" x="140" y="20" width="38" height="70" rx="5" ry="5" style="stroke: rgb(0, 0, 0); fill: rgb(254, 182, 182);"></rect>
    <rect id="car-1-door-4" x="205" y="20" width="38" height="70" rx="5" ry="5" style="stroke: rgb(0, 0, 0); fill: rgb(254, 182, 182);"></rect>
  </g>

  <!-- Car 2 -->
  <g transform="translate(260, 0)">
    <rect id="car-2" x="0" y="0" width="254" height="100" rx="10" ry="10" style="stroke: rgb(0, 0, 0); paint-order: fill; fill: rgb(191, 191, 191);"></rect>
    <rect id="car-2-door-1" x="10" y="20" width="38" height="70" rx="5" ry="5" style="stroke: rgb(0, 0, 0); fill: rgb(254, 182, 182);"></rect>
    <rect id="car-2-door-2" x="75" y="20" width="38" height="70" rx="5" ry="5" style="stroke: rgb(0, 0, 0); fill: rgb(254, 182, 182);"></rect>
    <rect id="car-2-door-3" x="140" y="20" width="38" height="70" rx="5" ry="5" style="stroke: rgb(0, 0, 0); fill: rgb(254, 182, 182);"></rect>
    <rect id="car-2-door-4" x="205" y="20" width="38" height="70" rx="5" ry="5" style="stroke: rgb(0, 0, 0); fill: rgb(254, 182, 182);"></rect>
  </g>

  <!-- Car 3 -->
  <g transform="translate(520, 0)">
    <rect id="car-3" x="0" y="0" width="254" height="100" rx="10" ry="10" style="stroke: rgb(0, 0, 0); paint-order: fill; fill: rgb(191, 191, 191);"></rect>
    <rect id="car-3-door-1" x="10" y="20" width="38" height="70" rx="5" ry="5" style="stroke: rgb(0, 0, 0); fill: rgb(254, 182, 182);"></rect>
    <rect id="car-3-door-2" x="75" y="20" width="38" height="70" rx="5" ry="5" style="stroke: rgb(0, 0, 0); fill: rgb(254, 182, 182);"></rect>
    <rect id="car-3-door-3" x="140" y="20" width="38" height="70" rx="5" ry="5" style="stroke: rgb(0, 0, 0); fill: rgb(254, 182, 182);"></rect>
    <rect id="car-3-door-4" x="205" y="20" width="38" height="70" rx="5" ry="5" style="stroke: rgb(0, 0, 0); fill: rgb(254, 182, 182);"></rect>
  </g>

  <!-- Car 4 -->
  <g transform="translate(780, 0)">
    <rect id="car-4" x="0" y="0" width="254" height="100" rx="10" ry="10" style="stroke: rgb(0, 0, 0); paint-order: fill; fill: rgb(191, 191, 191);"></rect>
    <rect id="car-4-door-1" x="10" y="20" width="38" height="70" rx="5" ry="5" style="stroke: rgb(0, 0, 0); fill: rgb(254, 182, 182);"></rect>
    <rect id="car-4-door-2" x="75" y="20" width="38" height="70" rx="5" ry="5" style="stroke: rgb(0, 0, 0); fill: rgb(254, 182, 182);"></rect>
    <rect id="car-4-door-3" x="140" y="20" width="38" height="70" rx="5" ry="5" style="stroke: rgb(0, 0, 0); fill: rgb(254, 182, 182);"></rect>
    <rect id="car-4-door-4" x="205" y="20" width="38" height="70" rx="5" ry="5" style="stroke: rgb(0, 0, 0); fill: rgb(254, 182, 182);"></rect>
  </g>

  <!-- Car 5 -->
  <g transform="translate(1040, 0)">
    <rect id="car-5" x="0" y="0" width="254" height="100" rx="10" ry="10" style="stroke: rgb(0, 0, 0); paint-order: fill; fill: rgb(191, 191, 191);"></rect>
    <rect id="car-5-door-1" x="10" y="20" width="38" height="70" rx="5" ry="5" style="stroke: rgb(0, 0, 0); fill: rgb(254, 182, 182);"></rect>
    <rect id="car-5-door-2" x="75" y="20" width="38" height="70" rx="5" ry="5" style="stroke: rgb(0, 0, 0); fill: rgb(254, 182, 182);"></rect>
    <rect id="car-5-door-3" x="140" y="20" width="38" height="70" rx="5" ry="5" style="stroke: rgb(0, 0, 0); fill: rgb(254, 182, 182);"></rect>
    <rect id="car-5-door-4" x="205" y="20" width="38" height="70" rx="5" ry="5" style="stroke: rgb(0, 0, 0); fill: rgb(254, 182, 182);"></rect>
  </g>
</svg>
